<?xml version="1.0" encoding="UTF-8"?>
<svg id="Layer_2" data-name="Layer 2" xmlns="http://www.w3.org/2000/svg" viewBox="0 0 345 84">
  <defs>
    <style>
      .cls-1 {
        fill: #fff;
      }

      .cls-2 {
        fill: #e80024;
      }
    </style>
  </defs>
  <g id="_Режим_изоляции" data-name="Режим изоляции">
    <g>
      <rect class="cls-2" width="345" height="84" rx="19" ry="19"/>
      <path class="cls-1" d="M36.8,67.43c-.22,.21-.76,.3-1.62,.3h-10.73c-1.16,0-1.62-.5-1.38-1.51L31.73,29.18c.43-1.82,1.09-3.59,2.01-5.33,.91-1.74,2.08-3.27,3.53-4.61,1.44-1.34,3.19-2.41,5.25-3.21,2.05-.81,4.41-1.21,7.08-1.21h22.99c.6,0,.97,.09,1.11,.27,.13,.17,.1,.69-.1,1.55l-2,8.54c-.16,.66-.36,1.1-.61,1.32-.26,.23-.66,.34-1.22,.34h-18.67c-1.01,0-1.85,.14-2.52,.42-.67,.27-1.21,.61-1.6,1.02-.39,.4-.71,.86-.93,1.36-.22,.5-.39,1.01-.51,1.51l-1.09,4.69h19.88c.6,0,.97,.1,1.1,.3,.13,.2,.09,.73-.11,1.59l-1.84,7.86c-.27,1.16-.88,1.74-1.84,1.74h-19.88l-4.43,18.9c-.14,.6-.33,1.01-.55,1.21"/>
      <path class="cls-1" d="M103.93,41.27c.41-1.96,.69-3.84,.83-5.63,.14-1.79,.04-3.34-.31-4.65-.35-1.31-1.02-2.35-1.99-3.13-.98-.78-2.34-1.17-4.11-1.17-1.46,0-2.84,.38-4.12,1.14-1.29,.76-2.44,1.78-3.44,3.06-1.01,1.28-1.88,2.78-2.64,4.49-.76,1.72-1.35,3.5-1.79,5.37-.54,2.32-.88,4.41-1.02,6.27-.13,1.87,0,3.44,.41,4.73,.4,1.29,1.1,2.28,2.09,2.98,1,.71,2.35,1.06,4.07,1.06s3.14-.39,4.43-1.18c1.29-.78,2.42-1.84,3.38-3.17,.97-1.34,1.8-2.89,2.49-4.65,.69-1.77,1.26-3.6,1.71-5.52m15.07-.08c-.99,4.24-2.34,8.04-4.04,11.42-1.7,3.38-3.79,6.25-6.29,8.62-2.49,2.37-5.43,4.19-8.79,5.44-3.37,1.26-7.2,1.89-11.48,1.89s-7.49-.62-10.19-1.85c-2.71-1.24-4.74-3.02-6.11-5.37-1.37-2.34-2.13-5.21-2.26-8.58-.14-3.37,.28-7.18,1.27-11.41,.97-4.13,2.37-7.89,4.19-11.26,1.82-3.38,4.01-6.27,6.56-8.66,2.55-2.39,5.47-4.23,8.74-5.52,3.27-1.28,6.88-1.92,10.81-1.92s7.48,.64,10.17,1.92c2.7,1.28,4.77,3.11,6.21,5.48,1.43,2.37,2.24,5.24,2.41,8.58,.17,3.35-.22,7.09-1.19,11.23"/>
      <path class="cls-1" d="M207.11,50.5c.34-1.46,.18-2.66-.47-3.59-.66-.93-1.81-1.4-3.47-1.4h-8.87l-2.32,9.9h8.87c1.01,0,1.87-.15,2.59-.45,.72-.3,1.34-.71,1.86-1.21,.52-.5,.92-1.03,1.2-1.59,.27-.56,.48-1.11,.61-1.66m-10.2-16.18h7.89c1,0,1.99-.26,2.96-.76,.96-.5,1.62-1.49,1.96-2.95,.27-1.16,.14-2.04-.4-2.64-.54-.61-1.38-.91-2.53-.91h-8.19l-1.7,7.26Zm19.88,4.53c1.27,.6,2.29,1.37,3.05,2.3,.76,.94,1.33,1.97,1.7,3.1,.36,1.13,.54,2.32,.52,3.55,0,1.24-.15,2.45-.44,3.66-.57,2.42-1.55,4.63-2.95,6.62-1.4,1.99-3.1,3.7-5.1,5.14-1.99,1.44-4.21,2.55-6.63,3.32-2.43,.78-4.95,1.17-7.57,1.17h-19.66c-2.07,0-3.31-.39-3.73-1.17-.42-.78-.42-2.05-.01-3.82l10.05-42.94c.39-1.66,.98-2.91,1.78-3.74,.8-.84,2.23-1.25,4.29-1.25h19.66c2.26,0,4.33,.26,6.17,.76,1.85,.5,3.37,1.31,4.58,2.42,1.2,1.11,2.03,2.52,2.49,4.23,.45,1.71,.4,3.78-.17,6.2-.46,1.97-1.43,3.87-2.92,5.71-1.48,1.84-3.16,3.26-5,4.27l-.11,.45Z"/>
      <path class="cls-1" d="M261.92,67.73h-23.36c-3.03,0-5.38-.43-7.07-1.28-1.69-.86-2.92-1.97-3.67-3.36-.76-1.39-1.14-2.94-1.14-4.65,0-1.71,.2-3.4,.58-5.07l5.66-24.19c.43-1.81,1.09-3.59,2.01-5.33,.91-1.74,2.09-3.27,3.53-4.61,1.45-1.34,3.2-2.41,5.25-3.21,2.05-.81,4.41-1.21,7.09-1.21h22.3c.61,0,.98,.09,1.11,.27,.14,.17,.1,.69-.09,1.54l-1.99,8.55c-.16,.65-.36,1.09-.62,1.32-.25,.23-.66,.34-1.21,.34h-17.99c-1.01,0-1.85,.14-2.52,.42-.67,.27-1.2,.61-1.6,1.02-.4,.4-.71,.85-.93,1.36-.22,.5-.38,1.01-.51,1.51l-.74,3.18h20.27c.6,0,.97,.1,1.1,.3,.13,.21,.09,.73-.11,1.59l-1.84,7.86c-.27,1.16-.89,1.74-1.84,1.74h-20.27l-1.32,5.67c-.23,.96-.29,1.72-.19,2.27,.09,.55,.31,.96,.65,1.24,.34,.27,.78,.45,1.31,.53,.54,.07,1.14,.11,1.79,.11h19.21c.6,0,.97,.09,1.11,.27,.14,.17,.11,.69-.09,1.55l-2,8.55c-.27,1.16-.89,1.74-1.85,1.74"/>
      <path class="cls-1" d="M318.52,26.83h-12.93l-9.21,39.31c-.14,.6-.33,1.02-.55,1.25-.24,.23-.78,.34-1.64,.34h-10.74c-1.16,0-1.61-.53-1.36-1.59l9.2-39.31h-12.63c-1.06,0-1.45-.58-1.18-1.74l1.98-8.47c.21-.86,.44-1.37,.71-1.55,.27-.18,.7-.26,1.31-.26h39.85c.6,0,1,.09,1.18,.26,.19,.18,.18,.69-.02,1.55l-1.98,8.47c-.27,1.16-.93,1.74-1.99,1.74"/>
      <path class="cls-1" d="M140.29,39.08l-6.46,27.06c-.14,.6-.33,1.02-.56,1.25-.23,.23-.77,.34-1.63,.34h-10.73c-1.16,0-1.61-.53-1.36-1.59l10.83-45.35c.57-2.37,1.33-3.96,2.31-4.77,.97-.81,2.52-1.21,4.63-1.21h3.93c.76,0,1.41,.04,1.94,.11,.54,.08,1.01,.23,1.44,.46,.43,.23,.81,.57,1.16,1.02,.35,.46,.7,1.06,1.08,1.81l6.95,16.18,3.7,9.22h.53l6.49-27.21c.14-.6,.33-1.02,.56-1.25,.23-.23,.77-.34,1.63-.34h10.74c1.16,0,1.61,.53,1.36,1.59l-10.82,45.35c-.41,1.71-1.1,3.14-2.08,4.27-.97,1.14-2.6,1.7-4.87,1.7h-3.93c-.71,0-1.34-.04-1.9-.11-.57-.07-1.06-.23-1.48-.45-.43-.23-.83-.57-1.19-1.02-.37-.45-.72-1.06-1.05-1.81l-6.87-15.87-3.81-9.37h-.53Z"/>
    </g>
  </g>
</svg>